<svg xmlns="http://www.w3.org/2000/svg" viewBox="0 0 1133.59 1084.31"><defs><style>.cls-1{opacity:0.04;}.cls-2{fill:none;stroke:#fff;stroke-miterlimit:10;stroke-width:2px;}</style></defs><title>Asset 1C2C Vector Logo</title><g id="Layer_2" data-name="Layer 2"><g id="Layer_1-2" data-name="Layer 1"><g class="cls-1"><path class="cls-2" d="M276,666.23c20.48,0,20.48,25.92,40.95,25.92s20.48-25.92,41-25.92,20.48,25.92,41,25.92,20.48-25.92,41-25.92,20.49,25.92,41,25.92"/><path class="cls-2" d="M498.47,276.46c-9.29,18.25-32.39,6.5-41.67,24.75s13.8,30,4.52,48.26-32.39,6.5-41.68,24.75,13.81,30,4.52,48.26-32.38,6.5-41.67,24.75"/><path class="cls-2" d="M481.24,272.17c-9.29,18.25-32.38,6.5-41.67,24.75s13.81,30,4.52,48.26-32.39,6.5-41.67,24.75,13.8,30,4.51,48.26-32.38,6.5-41.67,24.76"/><path class="cls-2" d="M1036.44,539.23c11.58,16.9-9.8,31.54,1.77,48.44s33,2.25,44.53,19.15-9.81,31.54,1.76,48.43,33,2.26,44.53,19.16-9.81,31.54,1.77,48.44"/><path class="cls-2" d="M1018.67,551.41c11.57,16.9-9.81,31.54,1.76,48.44s33,2.25,44.53,19.14-9.81,31.54,1.76,48.44,33,2.25,44.53,19.15-9.8,31.54,1.77,48.44"/><path class="cls-2" d="M118.82,33.74c20.48-.1,20.61,25.82,41.09,25.71s20.35-26,40.83-26.12S221.35,59.15,241.82,59s20.36-26,40.84-26.12,20.61,25.82,41.09,25.71"/><path class="cls-2" d="M118.93,55.29C139.41,55.19,139.54,81.1,160,81s20.35-26,40.82-26.12,20.61,25.81,41.09,25.71,20.35-26,40.84-26.12,20.61,25.81,41.09,25.71"/><polyline class="cls-2" points="579.24 870.24 596.86 881.38 614.48 870.24 632.09 881.38 649.71 870.24 667.33 881.38"/><polyline class="cls-2" points="621.85 102.35 616.91 122.6 633.09 135.74 628.15 155.99 644.34 169.13 639.4 189.39"/><polyline class="cls-2" points="544.24 859.09 561.86 870.24 579.48 859.09 597.09 870.24 614.71 859.09 632.33 870.24"/><polyline class="cls-2" points="791.9 30.2 822.91 49.82 853.92 30.2 884.92 49.82 915.93 30.2 946.94 49.82"/><polyline class="cls-2" points="730.31 10.58 761.31 30.2 792.32 10.58 823.32 30.2 854.33 10.58 885.34 30.2"/><polyline class="cls-2" points="415.21 132.31 457.19 125.03 468.58 83.97 510.55 76.68 521.95 35.63 563.92 28.34"/><polyline class="cls-2" points="490.04 104.96 532.01 97.67 543.41 56.62 585.38 49.33 596.77 8.28 638.75 0.98"/><line class="cls-2" x1="768.17" y1="154.79" x2="796.84" y2="207.77"/><line class="cls-2" x1="809" y1="166.94" x2="756.02" y2="195.61"/><line class="cls-2" x1="186.9" y1="927.3" x2="235.98" y2="1017.99"/><line class="cls-2" x1="256.78" y1="948.11" x2="166.1" y2="997.18"/><line class="cls-2" x1="578.98" y1="460.26" x2="607.65" y2="513.25"/><line class="cls-2" x1="619.81" y1="472.42" x2="566.83" y2="501.09"/><polyline class="cls-2" points="720.38 1026.37 776.6 1036.2 809.55 989.6 865.78 999.42"/><polyline class="cls-2" points="766.93 1015.76 799.88 969.16 856.11 978.99"/><circle class="cls-2" cx="1039.6" cy="276.01" r="24.47" transform="translate(478.41 1193.63) rotate(-73.42)"/><circle class="cls-2" cx="1098.7" cy="870.24" r="24.47" transform="translate(-48.88 1674.92) rotate(-73.42)"/><rect class="cls-2" x="885.58" y="296.85" width="30.39" height="30.39" transform="translate(484.48 -545.55) rotate(45)"/><rect class="cls-2" x="389.79" y="23.51" width="30.39" height="30.39" transform="translate(145.99 -275.03) rotate(45)"/><rect class="cls-2" x="157.22" y="777.62" width="30.39" height="30.39" transform="translate(965.23 620.39) rotate(90)"/><rect class="cls-2" x="906.38" y="953.79" width="30.39" height="30.39" transform="translate(1890.56 47.41) rotate(90)"/><rect class="cls-2" x="553.77" y="229.95" width="30.39" height="30.39" transform="translate(814.11 -323.82) rotate(90)"/><polygon class="cls-2" points="1005.93 510.91 1055.44 501.01 1067.09 451.49 1017.57 461.39 1005.93 510.91"/><polygon class="cls-2" points="989.24 431.69 1038.76 421.79 1067.09 451.49 1017.57 461.39 989.24 431.69"/><polygon class="cls-2" points="977.6 481.2 989.24 431.69 1017.57 461.39 1005.93 510.91 977.6 481.2"/><polygon class="cls-2" points="374.81 857.12 424.33 847.22 435.97 797.7 386.45 807.6 374.81 857.12"/><polygon class="cls-2" points="358.12 777.89 407.64 767.99 435.97 797.7 386.45 807.6 358.12 777.89"/><polygon class="cls-2" points="346.48 827.41 358.12 777.89 386.45 807.6 374.81 857.12 346.48 827.41"/><polygon class="cls-2" points="586.72 715.48 636.24 705.58 647.88 656.06 598.37 665.96 586.72 715.48"/><polygon class="cls-2" points="570.04 636.25 619.55 626.35 647.88 656.06 598.37 665.96 570.04 636.25"/><polygon class="cls-2" points="558.39 685.77 570.04 636.25 598.37 665.96 586.72 715.48 558.39 685.77"/><polyline class="cls-2" points="208.58 342.88 169.44 303.92 183.61 250.55 236.92 236.14 276.06 275.1"/><polyline class="cls-2" points="276.06 275.1 222.75 289.51 183.7 250.46"/><line class="cls-2" x1="222.75" y1="289.51" x2="208.58" y2="342.88"/><polygon class="cls-2" points="91.28 225.59 130.24 264.72 183.61 250.55 198.03 197.25 159.07 158.11 105.7 172.28 91.28 225.59"/><polyline class="cls-2" points="290.42 221.83 276.3 275.16 237.16 236.2 251.33 182.83 290.42 221.83"/><polyline class="cls-2" points="159 157.87 197.96 197 251.33 182.83"/><polyline class="cls-2" points="91.28 225.59 130.42 264.55 116.25 317.92"/><polyline class="cls-2" points="155.25 357.01 208.58 342.88 169.62 303.75 116.25 317.92 155.25 357.01"/><polyline class="cls-2" points="159.07 158.11 144.65 211.42 183.7 250.46"/><line class="cls-2" x1="144.65" y1="211.42" x2="91.28" y2="225.59"/><polyline class="cls-2" points="852.11 813.5 886.9 784.75 929.19 800.51 936.69 845.01 901.9 873.76"/><polyline class="cls-2" points="901.9 873.76 894.4 829.25 929.25 800.59"/><line class="cls-2" x1="894.4" y1="829.25" x2="852.11" y2="813.5"/><polygon class="cls-2" points="956.82 727.38 921.89 755.97 929.19 800.51 971.41 816.46 1006.33 787.87 999.03 743.33 956.82 727.38"/><polyline class="cls-2" points="944.08 889.67 901.83 873.95 936.62 845.2 978.91 860.96 944.08 889.67"/><polyline class="cls-2" points="1006.53 787.84 971.61 816.42 978.91 860.96"/><polyline class="cls-2" points="956.82 727.38 922.02 756.13 879.73 740.37"/><polyline class="cls-2" points="844.85 769 852.11 813.5 887.03 784.91 879.73 740.37 844.85 769"/><polyline class="cls-2" points="1006.33 787.87 964.11 771.92 929.25 800.59"/><line class="cls-2" x1="964.11" y1="771.92" x2="956.81" y2="727.39"/><polyline class="cls-2" points="34.9 687.53 43.45 643.22 86.1 628.47 120.2 658.03 111.65 702.34"/><polyline class="cls-2" points="111.65 702.34 77.55 672.78 86.2 628.49"/><line class="cls-2" x1="77.55" y1="672.78" x2="34.9" y2="687.53"/><polygon class="cls-2" points="60.89 554.48 52.13 598.75 86.1 628.47 128.82 613.91 137.57 569.64 103.6 539.92 60.89 554.48"/><polyline class="cls-2" points="154.31 687.78 111.71 702.54 120.27 658.22 162.92 643.47 154.31 687.78"/><polyline class="cls-2" points="137.7 569.48 128.95 613.76 162.92 643.47"/><polyline class="cls-2" points="60.89 554.48 52.34 598.79 9.68 613.54"/><polyline class="cls-2" points="0.98 657.82 34.9 687.53 43.65 643.26 9.68 613.54 0.98 657.82"/><polyline class="cls-2" points="137.57 569.64 94.85 584.2 86.2 628.49"/><line class="cls-2" x1="94.85" y1="584.2" x2="60.89" y2="554.48"/><polyline class="cls-2" points="754.08 631.87 762.63 587.55 805.28 572.8 839.38 602.36 830.83 646.68"/><polyline class="cls-2" points="830.83 646.68 796.73 617.11 805.38 572.82"/><line class="cls-2" x1="796.73" y1="617.11" x2="754.08" y2="631.86"/><polygon class="cls-2" points="780.07 498.81 771.32 543.09 805.28 572.8 848 558.25 856.75 513.97 822.79 484.26 780.07 498.81"/><polyline class="cls-2" points="873.5 632.11 830.9 646.87 839.45 602.56 882.1 587.81 873.5 632.11"/><polyline class="cls-2" points="856.89 513.82 848.14 558.09 882.1 587.81"/><polyline class="cls-2" points="780.07 498.81 771.52 543.13 728.87 557.88"/><polyline class="cls-2" points="720.17 602.16 754.08 631.87 762.83 587.59 728.87 557.88 720.17 602.16"/><polyline class="cls-2" points="856.75 513.97 814.04 528.53 805.38 572.82"/><line class="cls-2" x1="814.04" y1="528.53" x2="780.07" y2="498.81"/><polygon class="cls-2" points="270.93 526.88 181.68 437.66 303.83 404.95 270.93 526.88"/><polygon class="cls-2" points="261.78 492.62 216 446.85 278.68 430.1 261.78 492.62"/><polyline class="cls-2" points="270.93 526.88 268.02 537.77 178.78 448.55 181.68 437.66"/><line class="cls-2" x1="223.99" y1="454.84" x2="275.77" y2="440.99"/><polygon class="cls-2" points="690.35 464.5 601.11 375.28 723.26 342.56 690.35 464.5"/><polygon class="cls-2" points="681.2 430.24 635.43 384.47 698.11 367.72 681.2 430.24"/><polyline class="cls-2" points="690.35 464.5 687.45 475.39 598.2 386.17 601.11 375.28"/><line class="cls-2" x1="643.41" y1="392.46" x2="695.2" y2="378.61"/><polygon class="cls-2" points="749.48 932.49 623.29 932.51 686.53 823 749.48 932.49"/><polygon class="cls-2" points="718.79 914.73 654.06 914.74 686.53 858.57 718.79 914.73"/><polyline class="cls-2" points="749.48 932.49 755.13 942.25 628.93 942.26 623.29 932.51"/><line class="cls-2" x1="665.35" y1="914.74" x2="692.18" y2="868.33"/><polygon class="cls-2" points="521.95 1073.53 395.76 1073.55 459 964.04 521.95 1073.53"/><polygon class="cls-2" points="491.26 1055.77 426.53 1055.78 459 999.61 491.26 1055.77"/><polyline class="cls-2" points="521.95 1073.53 527.6 1083.29 401.4 1083.31 395.76 1073.55"/><line class="cls-2" x1="437.82" y1="1055.78" x2="464.65" y2="1009.37"/><polygon class="cls-2" points="1062.05 205.13 946.75 89.87 1104.56 47.61 1062.05 205.13"/><polygon class="cls-2" points="1050.23 160.87 991.09 101.75 1072.07 80.1 1050.23 160.87"/><polyline class="cls-2" points="1062.05 205.13 1058.3 219.21 943 103.94 946.75 89.87"/><line class="cls-2" x1="1001.41" y1="112.06" x2="1068.31" y2="94.18"/></g></g></g></svg>